<svg width="622" height="591" viewBox="0 0 622 591" fill="none" xmlns="http://www.w3.org/2000/svg">
<path d="M269.257 492.364C269.257 524.812 269.257 557.23 269.257 589.678H352.402V492.143C340.133 490.696 326.26 489.72 311.065 489.751C295.682 489.783 281.652 490.853 269.257 492.364Z" fill="#FF56B1"/>
<path d="M310.748 0C217.411 162.149 124.104 324.298 30.798 486.478C20.5425 503.914 10.2555 521.35 0 538.786C22.3985 556.191 44.7971 573.595 67.2271 591C97.5847 561.384 148.611 521.004 220.902 501.554C237.922 496.959 254.157 494.095 269.257 492.364C269.257 463.944 269.254 435.523 269.223 407.135C260.415 407.985 251.26 409.18 241.822 410.754C210.112 416.073 182.366 424.697 158.96 434.044C209.577 346.077 260.163 258.11 310.78 170.143C362.435 258.74 414.09 347.336 465.745 435.933C454.451 431.589 442.34 427.403 429.442 423.532C401.632 415.192 375.647 410.03 352.431 406.883V492.143C371.369 494.535 392.667 498.816 415.443 506.18C481.254 527.487 527.247 564.374 554.49 590.843C576.983 573.69 599.507 556.506 622 539.353C518.218 359.579 414.499 179.774 310.748 0Z" fill="#FF56B1"/>
</svg>
