<?xml version="1.0" encoding="UTF-8"?><svg id="Layer_1" xmlns="http://www.w3.org/2000/svg" xmlns:xlink="http://www.w3.org/1999/xlink" viewBox="0 0 95.39 131.07"><defs><style>.cls-1{fill:#f57c00;}.cls-2{fill:rgba(255,255,255,.2);}.cls-3{fill:#a52714;isolation:isolate;opacity:.2;}.cls-4{fill:url(#linear-gradient);}.cls-5{fill:#ffa000;}.cls-6{fill:#ffca28;}</style><linearGradient id="linear-gradient" x1="-718.43" y1="603.3" x2="-717.38" y2="602.54" gradientTransform="translate(68247.44 79053.89) scale(95 -131)" gradientUnits="userSpaceOnUse"><stop offset="0" stop-color="#fff" stop-opacity=".1"/><stop offset=".14" stop-color="#fff" stop-opacity=".08"/><stop offset=".61" stop-color="#fff" stop-opacity=".02"/><stop offset="1" stop-color="#fff" stop-opacity="0"/></linearGradient></defs><path class="cls-5" d="m.05,105.75L16.18,2.52c.2-1.27,1.18-2.26,2.44-2.48s2.52.4,3.13,1.53l16.68,31.12,6.65-12.66c.51-.98,1.53-1.59,2.64-1.59s2.12.61,2.64,1.59l45.02,85.72H.05Z"/><path class="cls-1" d="m55.78,65.54l-17.35-32.86L.05,105.75l55.73-40.21Z"/><path class="cls-6" d="m95.39,105.75l-12.36-76.46c-.19-1.1-.97-2-2.03-2.34s-2.22-.06-3.01.73L.05,105.75l43.12,24.18c2.71,1.51,6.01,1.51,8.71,0l43.5-24.18h0Z"/><path class="cls-2" d="m83.03,29.29c-.19-1.1-.97-2-2.03-2.34s-2.22-.06-3.01.73l-15.47,15.51-12.16-23.16c-.51-.98-1.53-1.59-2.64-1.59s-2.12.61-2.64,1.59l-6.65,12.66L21.75,1.57c-.6-1.13-1.87-1.75-3.13-1.53s-2.25,1.22-2.44,2.48L.05,105.75h-.05l.05.06.42.21L77.96,28.44c.79-.79,1.95-1.08,3.02-.74s1.85,1.24,2.03,2.35l12.25,75.77.12-.07-12.36-76.46h0ZM.19,105.61L16.18,3.26c.19-1.27,1.18-2.27,2.44-2.48s2.52.4,3.13,1.53l16.68,31.12,6.65-12.66c.51-.98,1.53-1.59,2.64-1.59s2.12.61,2.64,1.59l11.92,22.66L.19,105.61h0Z"/><path class="cls-3" d="m51.89,129.2c-2.71,1.51-6.01,1.51-8.71,0L.16,105.09l-.1.66,43.12,24.18c2.71,1.51,6.01,1.51,8.71,0l43.5-24.18-.11-.69-43.38,24.14h0Z"/><path id="b" class="cls-4" d="m82.91,29.3c-.19-1.1-.97-2-2.02-2.34s-2.21-.06-3,.73l-15.42,15.5-12.12-23.15c-.51-.98-1.53-1.59-2.63-1.59s-2.11.61-2.63,1.59l-6.63,12.66L21.84,1.6c-.6-1.13-1.86-1.75-3.12-1.53s-2.24,1.22-2.43,2.48L.22,105.73l42.97,24.17c2.7,1.51,5.99,1.51,8.68,0l43.34-24.17-12.31-76.43h0Z"/></svg>