<svg width="789" height="722" viewBox="0 0 789 722" fill="none" xmlns="http://www.w3.org/2000/svg">
<path d="M132.32 525.389C111.067 491.03 95.5539 438.484 95.5539 382.297C95.5539 213.822 232.554 76.7481 400.904 76.7481C435.568 76.7481 468.814 82.8505 499.874 93.5341L462.801 48.4923C442.692 44.7488 422.054 42.5437 400.904 42.5437C213.693 42.5437 61.385 194.951 61.385 382.28C61.385 444.826 78.6916 503.304 102.969 542.739L132.32 525.389Z" fill="url(#paint0_linear_34_84)"/>
<path d="M696.755 306.966C702.888 331.068 706.271 356.281 706.271 382.297C706.271 550.739 569.271 687.813 400.904 687.813C329.405 687.813 263.767 662.976 211.762 621.575L181.523 640.839C240.686 691.351 317.19 722 400.904 722C588.132 722 740.44 569.593 740.44 382.297C740.44 369.887 739.568 357.734 738.27 345.717L696.755 306.966Z" fill="url(#paint1_linear_34_84)"/>
<path d="M788.549 289.325C784.312 269.103 700.787 151.225 700.787 151.225C700.787 151.225 771.738 82.6454 776.436 74.5088C781.101 66.3722 799.073 48.1333 776.163 29.279C753.236 10.4588 736.818 22.6295 728.703 29.8943C720.553 37.1933 659.613 91.8076 659.613 91.8076C659.613 91.8076 535.905 1.68979 515.472 0.10008C495.056 -1.50672 481.423 16.7664 481.423 16.7664L607.266 143.721L545.592 216.523L490.494 200.438L460.033 219.207C460.033 219.207 520.495 245.582 532.454 260.779C544.43 275.975 560.216 326.418 560.216 326.418L589.242 311.119L575.694 244.711L645.706 188.951L765.724 320.641C765.759 320.641 792.786 309.547 788.549 289.325Z" fill="url(#paint2_linear_34_84)"/>
<path d="M505.973 280.829C494.595 270.146 476.434 263.428 476.434 263.428C326.091 409.613 138.47 570.601 97.6553 575.781C82.1597 576.892 72.3874 573.285 68.5263 564.943C64.1698 555.422 58.9249 549.268 70.0127 538.123L38.304 467.407C8.0304 497.868 -10.5404 556.499 6.47572 593.507C21.305 625.78 53.2016 644.343 92.9571 644.343C96.1689 644.343 99.4662 644.207 102.764 643.985C183.539 637.968 445.665 388.708 524.099 312.487C524.099 312.487 517.351 291.513 505.973 280.829Z" fill="url(#paint3_linear_34_84)"/>
<defs>
<linearGradient id="paint0_linear_34_84" x1="262.05" y1="263.428" x2="262.05" y2="644.344" gradientUnits="userSpaceOnUse">
<stop stop-color="#FF5454"/>
<stop offset="1" stop-color="#AC374C"/>
</linearGradient>
<linearGradient id="paint1_linear_34_84" x1="262.05" y1="263.428" x2="262.05" y2="644.344" gradientUnits="userSpaceOnUse">
<stop stop-color="#FF5454"/>
<stop offset="1" stop-color="#AC374C"/>
</linearGradient>
<linearGradient id="paint2_linear_34_84" x1="262.05" y1="263.428" x2="262.05" y2="644.344" gradientUnits="userSpaceOnUse">
<stop stop-color="#FF5454"/>
<stop offset="1" stop-color="#AC374C"/>
</linearGradient>
<linearGradient id="paint3_linear_34_84" x1="262.05" y1="263.428" x2="262.05" y2="644.344" gradientUnits="userSpaceOnUse">
<stop stop-color="#FF5454"/>
<stop offset="1" stop-color="#AC374C"/>
</linearGradient>
</defs>
</svg>
