<svg width="735" height="721" viewBox="0 0 735 721" fill="none" xmlns="http://www.w3.org/2000/svg">
<path d="M368 0C365.48 0 362.945 0.58125 360.625 1.78125L24.625 177.781C19.345 180.661 16 186.111 16 192.031V224.031H720V192.031C720 186.111 716.655 180.661 711.375 177.781L375.375 1.78125C373.055 0.58125 370.52 0 368 0ZM48 256.031V278.438C48 298.438 61.44 314.746 80 318.906V576.031H208V318.906C226.56 314.746 240 298.438 240 278.438V256.031H48ZM272 256.031V278.438C272 298.438 285.44 314.746 304 318.906V576.031H432V318.906C450.56 314.746 464 298.438 464 278.438V256.031H272ZM496 256.031V278.438C496 298.438 509.44 314.746 528 318.906V576.031H656V318.906C674.56 314.746 688 298.438 688 278.438V256.031H496ZM32 608.031C24.96 608.031 17.1312 610.579 11.5312 615.219C4.17125 621.459 0 630.74 0 640.5V684.5C0 704.34 14.7138 720.031 33.5938 720.031H700.812C719.372 720.031 734.406 704.845 734.406 686.125V642.125C734.406 623.405 719.372 608.188 700.812 608.188C700.812 608.188 33.28 608.031 32 608.031Z" fill="white"/>
</svg>
