<svg width="751" height="565" viewBox="0 0 751 565" fill="none" xmlns="http://www.w3.org/2000/svg">
<path fill-rule="evenodd" clip-rule="evenodd" d="M658 94.2941C607.176 94.6706 566.188 137.212 566.659 189.165C566.847 214.059 576.682 236.553 592.306 253.259L543.6 381.071C535.129 378.435 526.424 376.647 517.153 376.647C510.424 376.647 503.929 377.494 497.576 378.859L343.271 162.671C362.282 145.682 374.518 121.024 374.518 93.2588C374.518 41.8706 333.247 0.129425 282.329 0.129425C231.506 0.129425 190.235 41.8706 190.235 93.2588C190.235 114.341 197.388 133.588 209.059 149.212L130.753 290.482C119.365 285.447 106.847 282.482 93.6235 282.482C42.4235 282.482 0.964722 324.647 0.964722 376.6C0.964722 428.553 42.4235 470.718 93.6235 470.718C144.729 470.718 186.282 428.553 186.282 376.6C186.282 355.329 179.035 335.894 167.271 320.129L245.765 178.671C256.965 183.565 269.388 186.388 282.329 186.388C288.965 186.388 295.271 185.635 301.435 184.318L455.929 400.6C436.824 417.871 424.494 442.765 424.494 470.718C424.494 522.671 465.953 564.835 517.153 564.835C568.259 564.835 609.812 522.671 609.812 470.718C609.812 445.4 599.788 422.482 583.788 405.541L632.306 278.059C641.059 280.741 650.047 282.576 659.506 282.482C710.424 282.106 751.318 239.565 750.941 187.612C750.471 135.753 708.918 93.8706 658 94.2941Z" fill="url(#paint0_linear_56_15)"/>
<defs>
<linearGradient id="paint0_linear_56_15" x1="119.5" y1="142" x2="375.954" y2="564.835" gradientUnits="userSpaceOnUse">
<stop stop-color="white"/>
<stop offset="1" stop-color="white"/>
</linearGradient>
</defs>
</svg>
