<svg width="581" height="581" viewBox="0 0 581 581" fill="none" xmlns="http://www.w3.org/2000/svg">
<path d="M193.814 581C247.255 581 290.628 537.619 290.628 484.167V387.333H193.814C140.373 387.333 97 430.715 97 484.167C97 537.619 140.373 581 193.814 581Z" fill="#0ACF83"/>
<path d="M97 290.5C97 237.048 140.373 193.667 193.814 193.667H290.628V387.333H193.814C140.373 387.333 97 343.952 97 290.5Z" fill="#A259FF"/>
<path d="M97 96.8333C97 43.3813 140.373 0 193.814 0H290.628V193.667H193.814C140.373 193.667 97 150.285 97 96.8333Z" fill="#F24E1E"/>
<path d="M290.628 0H387.442C440.883 0 484.256 43.3813 484.256 96.8333C484.256 150.285 440.883 193.667 387.442 193.667H290.628V0Z" fill="#FF7262"/>
<path d="M484.256 290.5C484.256 343.952 440.883 387.333 387.442 387.333C334.001 387.333 290.628 343.952 290.628 290.5C290.628 237.048 334.001 193.667 387.442 193.667C440.883 193.667 484.256 237.048 484.256 290.5Z" fill="#1ABCFE"/>
</svg>
