<svg width="568" height="551" viewBox="0 0 568 551" fill="none" xmlns="http://www.w3.org/2000/svg">
<path d="M229.147 248.15L217.43 236.3C214.823 238.877 213.139 242.24 212.638 245.87L229.147 248.15ZM300.033 321.45L302.47 337.937C306.113 337.4 309.477 335.67 312.033 333.017L300.033 321.45ZM217.333 333.667L200.823 331.387C200.105 336.583 201.876 341.813 205.604 345.507C209.331 349.2 214.579 350.92 219.77 350.153L217.333 333.667ZM150.667 417C159.871 417 167.333 409.537 167.333 400.333C167.333 391.127 159.871 383.667 150.667 383.667V417ZM550.667 550.333C559.87 550.333 567.333 542.87 567.333 533.667C567.333 524.46 559.87 517 550.667 517V550.333ZM240.867 260.003L460.483 42.8523L437.047 19.1493L217.43 236.3L240.867 260.003ZM504 85.8167L288.033 309.883L312.033 333.017L528 108.949L504 85.8167ZM297.597 304.963L214.898 317.18L219.77 350.153L302.47 337.937L297.597 304.963ZM233.843 335.947L245.657 250.433L212.638 245.87L200.823 331.387L233.843 335.947ZM501.943 41.4314C515.243 52.8927 516.183 73.175 504 85.8167L528 108.949C553.467 82.527 551.503 40.1347 523.703 16.1797L501.943 41.4314ZM460.483 42.8523C471.82 31.643 489.867 31.0244 501.943 41.4314L523.703 16.1797C498.46 -5.57198 460.74 -4.27932 437.047 19.1493L460.483 42.8523ZM150.667 383.667H84V417H150.667V383.667ZM84 550.333H550.667V517H84V550.333ZM0.666626 467C0.666626 513.023 37.9763 550.333 84 550.333V517C56.3856 517 34 494.613 34 467H0.666626ZM84 383.667C37.9763 383.667 0.666626 420.977 0.666626 467H34C34 439.387 56.3856 417 84 417V383.667Z" fill="white"/>
</svg>
