<svg width="667" height="667" viewBox="0 0 667 667" fill="none" xmlns="http://www.w3.org/2000/svg">
<path d="M473 0H193.667C72.3333 0 0 72.3333 0 193.667V472.667C0 594.333 72.3333 666.667 193.667 666.667H472.667C594 666.667 666.333 594.333 666.333 473V193.667C666.667 72.3333 594.333 0 473 0ZM473.333 541.667C435.667 541.667 405 511 405 473.333C405 451.333 415.667 432 432 419.333C418 382.667 383 357.333 343.667 358.667L275 359H274.667C254.333 359 235 353 218.667 342.667V410C244 420 262 444.667 262 473.333C262 511 231.333 541.667 193.667 541.667C156 541.667 125.333 511 125.333 473.333C125.333 444.333 143.333 420 168.667 410V265C143.333 253.333 125.333 228 125.333 198.333C125.333 158 158.333 125 198.667 125C239 125 272 158 272 198.333C272 231 250.333 258.333 220.667 268C227.333 292.333 249.333 309.333 274.667 309.333C274.667 309.333 274.667 309.333 275 309.333L343.667 309C344 309 344 309 344.333 309C405.667 309 460.667 348 480.667 406C515 409.667 542 438.333 542 473.667C541.667 511 511 541.667 473.333 541.667Z" fill="white"/>
</svg>
